# xmcd
#
# Track frame offsets:
#	150
#	21780
#	53177
#	73042
#	93010
#	110687
#	134080
#	147412
#	175000
#	185670
#	197730
#	217377
#	236645
#	257737
#
# Disc length: 3697
#
# Revision: 1
# Processed by: cddbd v1.5.1PL0 Copyright (c) Steve Scherf et al.
# Submitted via: CDnGo 1.95
# Normalized: r0:DSETVAR1
#
DISCID=db0e6f0e
DTITLE=Various Artist - The Best of Alligator - Great Guitarist
DYEAR=1999
DGENRE=Blues
TTITLE0=Gatemouth Brown - I Got My Mojo Working
TTITLE1=Albert Colins - Lights Are On, But Nobody's Home
TTITLE2=Long John Hunter - Time And Time Again
TTITLE3=Michael Hill's Blues Mob - New York State Of Blues
TTITLE4=Hound Dog Taylor - Taylor's Rock
TTITLE5=Lonnie Mack - Cincinnati Jail
TTITLE6=Bob Margolin - Up and In
TTITLE7=Son Seals - I'm Gonna Take It All Back
TTITLE8=Johnny Winter - Evil On My Mind
TTITLE9=Roy Buchannan - Petal To The Metal
TTITLE10=Tinsley Ellis - To The Evil For A Dime
TTITLE11=The Kinsey Report - This Old City
TTITLE12=Elvin Bishop With Joe Louis Walker - Country Blues
TTITLE13=Little Charlie And The Nigthcats - Percolatin
EXTD=
EXTT0=
EXTT1=
EXTT2=
EXTT3=
EXTT4=
EXTT5=
EXTT6=
EXTT7=
EXTT8=
EXTT9=
EXTT10=
EXTT11=
EXTT12=
EXTT13=
PLAYORDER=
